<svg width="35" height="26" viewBox="0 0 35 26" fill="none" xmlns="http://www.w3.org/2000/svg">
<path d="M33.6316 7.14303C32.948 6.45542 32.1635 6.21303 31.6135 6.13053C31.1414 2.66608 30.702 0.862305 15.8299 0.862305C0.957923 0.862305 0 3.04019 0 6.82008V7.46481C0 8.48764 0.853553 9.31681 1.90647 9.31681H6.67761C7.73053 9.31681 8.58408 8.48764 8.58408 7.46481V6.82008C8.58408 3.89203 13.1992 3.80236 15.8299 3.80236C18.4605 3.80236 23.0756 3.89203 23.0756 6.82008V7.46481C23.0756 8.48764 23.9292 9.31681 24.9821 9.31681H29.7533C30.8062 9.31681 31.6598 8.48764 31.6598 7.46481V7.21681C32.0113 7.30069 32.4551 7.48314 32.848 7.87819C33.8057 8.84192 34.1236 10.7038 33.7669 13.263C33.1484 17.6973 31.3546 19.2811 29.4442 19.8082V19.0368C29.4442 18.2536 29.2427 17.4784 28.8341 16.8011C26.9277 13.6315 24.2204 10.819 20.7805 8.33992V6.46675C20.7805 6.32125 20.658 6.20219 20.5082 6.20219H17.6784C17.5259 6.20219 17.4061 6.32125 17.4061 6.46675V8.32936H14.176V6.46675C14.176 6.32125 14.0534 6.20219 13.9036 6.20219H11.0711C10.9212 6.20219 10.7987 6.32125 10.7987 6.46675V8.32936C7.35348 10.8137 4.6435 13.6261 2.73423 16.8011C2.32567 17.4784 2.12413 18.2536 2.12413 19.0368V20.7803C2.12413 23.2648 4.19679 25.2781 6.75425 25.2781H24.8143C27.3316 25.2781 29.3748 23.3262 29.4383 20.8957C32.5003 20.199 34.2372 17.7721 34.8463 13.4051C35.2554 10.472 34.8466 8.36519 33.6316 7.14303ZM20.5154 19.083L18.6983 18.4545C18.891 18.0772 19.0022 17.6534 19.0022 17.2033C19.0022 15.6476 17.7031 14.3855 16.0988 14.3855C14.4974 14.3855 13.1955 15.6476 13.1955 17.2033C13.1955 18.7617 14.4974 20.0238 16.0988 20.0238C16.6919 20.0238 17.2428 19.8504 17.7023 19.5541L18.699 21.1457C17.9482 21.614 17.0573 21.889 16.0989 21.889C13.4352 21.889 11.2782 19.7909 11.2782 17.2034C11.2782 14.6184 13.4352 12.5204 16.0989 12.5204C18.7625 12.5204 20.9224 14.6185 20.9224 17.2034C20.9223 17.8723 20.7755 18.5073 20.5154 19.083Z" fill="#FFF9FC"/>
</svg>
